HIERARCHY
ROOT Hips
{
  OFFSET 48.0276 81.5603 -18.4323
  CHANNELS 6 Xposition Yposition Zposition Zrotation Xrotation Yrotation
  JOINT Chest
  {
    OFFSET 1.23234e-007 14.8421 1.27319e-009
    CHANNELS 6 Xposition Yposition Zposition Zrotation Xrotation Yrotation
    JOINT RightCollar
    {
      OFFSET -6.11406 27.2248 4.23427
      CHANNELS 6 Xposition Yposition Zposition Zrotation Xrotation Yrotation
      JOINT RightUpArm
      {
        OFFSET -10.4566 2.3285 -0.910794
        CHANNELS 6 Xposition Yposition Zposition Zrotation Xrotation Yrotation
        JOINT RightLowArm
        {
          OFFSET -3.86856 -25.191 -1.74633
          CHANNELS 6 Xposition Yposition Zposition Zrotation Xrotation Yrotation
          JOINT RightHand
          {
            OFFSET -1.04759 -20.6242 1.75213
            CHANNELS 6 Xposition Yposition Zposition Zrotation Xrotation Yrotation
            End Site
            {
              OFFSET -2.03487e-006 -9.50367 -4.31372e-006
            }
          }
        }
      }
    }
    JOINT LeftCollar
    {
      OFFSET 6.64893 27.3161 3.27471
      CHANNELS 6 Xposition Yposition Zposition Zrotation Xrotation Yrotation
      JOINT LeftUpArm
      {
        OFFSET 10.8584 2.41798 -0.945791
        CHANNELS 6 Xposition Yposition Zposition Zrotation Xrotation Yrotation
        JOINT LeftLowArm
        {
          OFFSET 3.77631 -24.5904 -1.70468
          CHANNELS 6 Xposition Yposition Zposition Zrotation Xrotation Yrotation
          JOINT LeftHand
          {
            OFFSET 1.01026 -21.1231 1.74131
            CHANNELS 6 Xposition Yposition Zposition Zrotation Xrotation Yrotation
            End Site
            {
              OFFSET 1.17583e-006 -9.81266 -2.89439e-008
            }
          }
        }
      }
    }
    JOINT Neck
    {
      OFFSET 0.51659 29.8236 6.51843
      CHANNELS 6 Xposition Yposition Zposition Zrotation Xrotation Yrotation
      JOINT Head
      {
        OFFSET 1.16803e-007 7.47049 6.44171e-007
        CHANNELS 6 Xposition Yposition Zposition Zrotation Xrotation Yrotation
        End Site
        {
          OFFSET -4.32676e-008 16.2908 2.16786e-007
        }
      }
    }
  }
  JOINT LeftUpLeg
  {
    OFFSET 9 -3.38008e-006 -5.22996e-009
    CHANNELS 6 Xposition Yposition Zposition Zrotation Xrotation Yrotation
    JOINT LeftLowLeg
    {
      OFFSET -0.575 -51.431 3.90177
      CHANNELS 6 Xposition Yposition Zposition Zrotation Xrotation Yrotation
      JOINT LeftFoot
      {
        OFFSET 2.13082e-007 -43.5882 -3.90177
        CHANNELS 6 Xposition Yposition Zposition Zrotation Xrotation Yrotation
        End Site
        {
          OFFSET 7.44796e-007 -6.93413 15.0046
        }
      }
    }
  }
  JOINT RightUpLeg
  {
    OFFSET -9 6.86154e-007 -3.19536e-009
    CHANNELS 6 Xposition Yposition Zposition Zrotation Xrotation Yrotation
    JOINT RightLowLeg
    {
      OFFSET 0.575 -51.4311 3.90177
      CHANNELS 6 Xposition Yposition Zposition Zrotation Xrotation Yrotation
      JOINT RightFoot
      {
        OFFSET -7.46079e-007 -43.5882 -3.90177
        CHANNELS 6 Xposition Yposition Zposition Zrotation Xrotation Yrotation
        End Site
        {
          OFFSET 4.66716e-007 -6.93413 15.0046
        }
      }
    }
  }
}
MOTION
Frames:	4
Frame Time:	0.0333333
59.3381 86.8819 -33.7372 -7.3393 -47.7005 10.7224 1.23227e-007 14.8421 1.27319e-009 23.6721 50.0791 -22.156 -6.11406 27.2248 4.23427 -1.96452 7.32629 3.42623 -10.4566 2.3285 -0.910794 6.19109 -21.958 -5.12156 -3.86856 -25.191 -1.74633 -27.7846 -13.1603 28.6099 -1.04759 -20.6242 1.75213 -40.2742 19.1322 0.858228 6.64893 27.3161 3.27471 -2.94784 5.93879 -4.20517 10.8584 2.41798 -0.945791 -27.3433 -43.4749 -50.8302 3.77631 -24.5904 -1.70468 32.5423 -14.8257 1.86644 1.01026 -21.1231 1.74131 15.8948 4.46293 1.27494 0.51659 29.8236 6.51843 7.25501 -8.30106 -4.48173 1.16803e-007 7.47049 6.44171e-007 -1.71125 36.5584 -1.08478 9 -3.38008e-006 -5.22996e-009 14.2053 7.43011 11.838 -0.575 -51.431 3.90177 13.7126 56.7108 -51.5139 2.13082e-007 -43.5882 -3.90177 17.4858 -11.998 0.04565 -9 6.86154e-007 -3.19895e-009 -27.186 -71.5949 -32.7476 0.575 -51.4311 3.90177 -9.35281 32.0817 26.9157 -7.46079e-007 -43.5882 -3.90177 -10.044 19.5334 2.50606 
59.0745 88.6742 -30.9343 -6.99807 -52.6093 11.8235 1.23227e-007 14.8421 1.27319e-009 24.1516 52.3957 -23.894 -6.11406 27.2248 4.23427 -1.96452 7.32629 3.42623 -10.4566 2.3285 -0.910794 6.98957 -21.1496 -3.00985 -3.86856 -25.191 -1.74633 -30.1248 -14.4986 31.3564 -1.04759 -20.6242 1.75213 -38.4305 17.2907 0.199905 6.64893 27.3161 3.27471 -2.94784 5.93879 -4.20517 10.8584 2.41798 -0.945791 -25.4051 -40.8017 -48.7638 3.77631 -24.5904 -1.70468 35.6767 -15.9678 -0.336709 1.01026 -21.1231 1.74131 15.4307 3.07228 1.36095 0.51659 29.8236 6.51843 7.28475 -5.61636 -3.8281 1.16803e-007 7.47049 6.44171e-007 -0.531902 32.6356 -0.86609 9 -3.38008e-006 -5.22996e-009 17.6805 14.7437 13.4541 -0.575 -51.431 3.90177 14.164 54.1839 -55.3438 2.13082e-007 -43.5882 -3.90177 17.6551 -11.8251 0.0209753 -9 6.86154e-007 -3.19888e-009 -27.493 -67.1831 -35.7516 0.575 -51.4311 3.90177 -6.49794 45.9451 15.3272 -7.46079e-007 -43.5882 -3.90177 -4.66305 17.4856 0.830888 
58.6217 91.7028 -27.5317 -10.5442 -53.7948 12.3638 1.23227e-007 14.8421 1.27319e-009 29.9829 49.881 -27.4824 -6.11406 27.2248 4.23427 -1.96452 7.32629 3.42623 -10.4566 2.3285 -0.910794 5.48311 -20.2567 -3.43083 -3.86856 -25.191 -1.74633 -31.4745 -15.2676 32.5482 -1.04759 -20.6242 1.75213 -38.6695 18.1523 0.463086 6.64893 27.3161 3.27471 -2.94784 5.93879 -4.20517 10.8584 2.41798 -0.945791 -24.5175 -37.3446 -45.1671 3.77631 -24.5904 -1.70468 34.8765 -15.5026 -2.22172 1.01026 -21.1231 1.74131 15.2663 3.29579 1.32986 0.51659 29.8236 6.51843 6.94839 -2.09134 -4.60499 1.16803e-007 7.47049 6.44171e-007 0.468112 31.1252 -1.91591 9 -3.38008e-006 -5.22996e-009 21.4912 18.712 11.3072 -0.575 -51.431 3.90177 15.8767 48.7228 -56.8474 2.13082e-007 -43.5882 -3.90177 17.1879 -12.8567 0.16968 -9 6.86154e-007 -3.19881e-009 -34.5288 -66.681 -46.5346 0.575 -51.4311 3.90177 -12.6911 68.4978 20.6979 -7.46079e-007 -43.5882 -3.90177 -4.83712 12.728 0.810875 
57.8278 93.7183 -24.7704 -13.0197 -50.2351 12.4772 1.23227e-007 14.8421 1.27319e-009 30.0219 43.9299 -24.9503 -6.11406 27.2248 4.23427 -1.96452 7.32629 3.42623 -10.4566 2.3285 -0.910794 5.25499 -19.3071 -5.15875 -3.86856 -25.191 -1.74633 -32.0898 -15.6954 32.3974 -1.04759 -20.6242 1.75213 -38.3277 20.0247 0.992694 6.64893 27.3161 3.27471 -2.94784 5.93879 -4.20517 10.8584 2.41798 -0.945791 -22.017 -32.9736 -43.5758 3.77631 -24.5904 -1.70468 33.5942 -14.9819 -2.46046 1.01026 -21.1231 1.74131 15.2125 3.2129 1.32983 0.51659 29.8236 6.51843 8.25097 -1.25819 -6.50425 1.16803e-007 7.47049 6.44171e-007 -1.85028 33.0804 -2.19334 9 -3.38008e-006 -5.22996e-009 22.7023 17.557 9.12385 -0.575 -51.431 3.90177 15.8018 45.1617 -56.1982 2.13082e-007 -43.5882 -3.90177 16.3469 -13.416 0.233799 -9 6.86154e-007 -3.19874e-009 -36.769 -68.2389 -53.3133 0.575 -51.4311 3.90177 -57.6449 84.3859 60.0526 -7.46079e-007 -43.5882 -3.90177 -3.85215 0.351995 0.346885 
